<svg xmlns="http://www.w3.org/2000/svg" width="848" height="992" viewBox="0 0 848 992" version="1.1"><path d="M 415.784 53.738 C 418.689 53.941, 423.189 53.939, 425.784 53.734 C 428.378 53.528, 426 53.363, 420.500 53.365 C 415 53.368, 412.878 53.536, 415.784 53.738 M 448.750 53.732 C 451.087 53.943, 454.913 53.943, 457.250 53.732 C 459.587 53.522, 457.675 53.349, 453 53.349 C 448.325 53.349, 446.413 53.522, 448.750 53.732 M 413.750 101.732 C 416.087 101.943, 419.913 101.943, 422.250 101.732 C 424.587 101.522, 422.675 101.349, 418 101.349 C 413.325 101.349, 411.413 101.522, 413.750 101.732 M 447.750 101.732 C 450.087 101.943, 453.913 101.943, 456.250 101.732 C 458.587 101.522, 456.675 101.349, 452 101.349 C 447.325 101.349, 445.413 101.522, 447.750 101.732 M 291.750 134.064 C 288.587 135.696, 286 137.256, 286 137.530 C 286 137.977, 297.900 132.312, 298.917 131.381 C 300.226 130.183, 296.745 131.486, 291.750 134.064 M 185.966 149.750 L 180.500 155.500 186.250 150.034 C 191.592 144.956, 192.458 144, 191.716 144 C 191.560 144, 188.972 146.588, 185.966 149.750 M 172.469 162.250 L 166.500 168.500 172.750 162.531 C 176.188 159.249, 179 156.436, 179 156.281 C 179 155.542, 178.013 156.444, 172.469 162.250 M 415 186.509 C 376.526 191.244, 342.812 207.394, 310.522 236.558 C 282.867 261.535, 258.776 299.542, 246.131 338.145 C 223.721 406.560, 226.614 477.490, 254.447 542 C 261.289 557.858, 276.305 583.548, 278.087 582.446 C 278.577 582.144, 278.736 582.523, 278.442 583.290 C 277.778 585.021, 291.728 603.286, 293.077 602.452 C 293.612 602.122, 293.926 602.447, 293.775 603.176 C 293.624 603.904, 294.096 604.376, 294.824 604.225 C 295.553 604.074, 295.887 604.373, 295.568 604.891 C 294.747 606.219, 299.957 612.145, 301.246 611.348 C 301.831 610.987, 302.032 611.139, 301.693 611.687 C 301.113 612.627, 307.606 619.784, 308.556 619.250 C 308.800 619.112, 309.027 619.337, 309.061 619.750 C 309.191 621.366, 313.476 625.031, 314.690 624.565 C 315.397 624.294, 315.869 624.618, 315.738 625.286 C 315.607 625.954, 316.096 626.376, 316.824 626.225 C 317.553 626.074, 317.901 626.351, 317.598 626.842 C 316.771 628.180, 320.681 631.315, 322.091 630.443 C 322.841 629.980, 323.051 630.109, 322.638 630.777 C 321.827 632.089, 325.915 635.170, 327.317 634.304 C 327.863 633.967, 328.018 634.161, 327.663 634.736 C 326.830 636.084, 331.699 639.304, 333.183 638.387 C 333.834 637.985, 334.033 638.137, 333.655 638.749 C 332.805 640.125, 343.646 647.337, 345.159 646.402 C 345.834 645.985, 346.038 646.129, 345.653 646.752 C 344.856 648.043, 361.319 656.656, 373.791 661.473 C 390.259 667.832, 415.310 673.159, 417.595 670.786 C 421.318 666.922, 433.141 634.307, 437.929 614.697 C 442.947 594.140, 444.292 581.170, 443.706 559 C 442.830 525.876, 438.365 509.040, 418.527 464.065 C 400.505 423.208, 393.395 400.943, 389.598 373.481 C 383.815 331.658, 389.332 285.348, 405.083 243.500 C 411.500 226.448, 425.232 197.465, 430.653 189.527 C 434.022 184.594, 432.673 184.334, 415 186.509 M 206.978 195.750 L 198.500 204.500 207.250 196.022 C 215.377 188.148, 216.456 187, 215.728 187 C 215.578 187, 211.641 190.938, 206.978 195.750 M 481.627 194.123 C 480.778 195.334, 480.362 196.815, 480.702 197.413 C 481.042 198.011, 480.951 198.165, 480.500 197.756 C 479.338 196.703, 476.734 200.743, 477.602 202.252 C 477.997 202.938, 477.951 203.165, 477.500 202.756 C 475.785 201.202, 457.229 236.498, 450.046 254.978 C 433.435 297.712, 428.953 341.281, 437.091 380.920 C 440.683 398.416, 443.842 407.243, 458.771 441.500 C 478.560 486.906, 484.575 506.392, 488.551 537.961 C 489.854 548.308, 490.122 555.943, 489.711 570.961 C 488.909 600.229, 484.639 623.157, 474.109 654.750 C 468.730 670.887, 468.416 670.101, 479.169 667.424 C 494.363 663.642, 517.918 653.441, 531 644.977 C 542.293 637.671, 555.018 627.838, 554.424 626.876 C 554.109 626.367, 554.447 626.074, 555.176 626.225 C 555.904 626.376, 556.376 625.904, 556.225 625.176 C 556.074 624.447, 556.359 624.104, 556.858 624.412 C 558.079 625.167, 563.022 621.195, 562.731 619.692 C 562.604 619.037, 563.027 618.601, 563.670 618.723 C 565.069 618.991, 578.496 604.507, 586.591 594 C 608.355 565.748, 624.200 531.888, 632.918 495 C 643.497 450.241, 643.299 405.370, 632.326 361 C 627.641 342.056, 622.166 326.208, 615.398 312 C 607.801 296.052, 597.898 278.945, 596.695 279.689 C 596.143 280.030, 595.989 279.827, 596.354 279.237 C 597.646 277.145, 571.168 244.061, 568.773 244.775 C 568.266 244.926, 568.099 244.649, 568.402 244.158 C 568.705 243.668, 567.959 242.420, 566.744 241.384 C 564.906 239.816, 564.762 239.794, 565.890 241.250 C 566.705 242.303, 566.822 243, 566.181 243 C 565.597 243, 564.835 242.543, 564.490 241.984 C 564.144 241.425, 563.330 241.286, 562.681 241.676 C 561.830 242.186, 561.841 241.962, 562.722 240.873 C 563.737 239.619, 563.227 238.691, 559.722 235.415 C 552.426 228.595, 548.663 225.451, 549.464 226.846 C 550.009 227.795, 549.711 228.090, 548.451 227.846 C 547.469 227.656, 546.458 226.875, 546.203 226.111 C 545.922 225.268, 546.185 224.996, 546.870 225.420 C 548.602 226.490, 548.212 225.417, 546.308 223.872 C 544.851 222.690, 544.727 222.708, 545.418 224 C 545.859 224.825, 545.158 224.354, 543.860 222.953 C 542.562 221.552, 541.901 221, 542.391 221.726 C 543.047 222.696, 542.848 222.879, 541.641 222.416 C 540.739 222.069, 540 221.186, 540 220.452 C 540 219.718, 539.480 218.797, 538.845 218.405 C 538.089 217.937, 537.964 218.133, 538.485 218.975 C 539.014 219.831, 538.815 220.105, 537.889 219.796 C 537.125 219.542, 536.500 218.846, 536.500 218.250 C 536.500 217.654, 536.090 216.792, 535.590 216.333 C 535.061 215.849, 534.981 216.024, 535.399 216.750 C 535.794 217.438, 535.641 218, 535.059 218 C 534.477 218, 534 217.352, 534 216.559 C 534 215.766, 533.480 214.797, 532.845 214.405 C 532.097 213.942, 531.964 214.133, 532.466 214.945 C 533.086 215.948, 532.766 215.952, 530.871 214.964 C 527.727 213.326, 527.007 212.504, 529.500 213.400 C 532.751 214.568, 530.062 212.533, 523.569 208.912 C 520.253 207.063, 517.976 206.243, 518.406 207.052 C 518.828 207.849, 518.296 207.423, 517.224 206.106 C 515.977 204.575, 514.809 204, 513.983 204.511 C 513.176 205.009, 512.936 204.912, 513.344 204.252 C 514.114 203.006, 508.264 200.719, 506.731 201.666 C 506.159 202.020, 505.975 201.849, 506.323 201.287 C 506.887 200.373, 495.845 195.431, 489 193.534 C 487.625 193.153, 485.751 192.634, 484.835 192.380 C 483.870 192.113, 482.522 192.845, 481.627 194.123 M 555 232.965 C 555 233.495, 555.913 234.418, 557.028 235.015 C 558.143 235.612, 558.792 236.528, 558.469 237.050 C 558.146 237.573, 558.668 238, 559.628 238 C 561.039 238, 560.822 237.424, 558.500 235 C 555.369 231.732, 555 231.517, 555 232.965 M 703.524 243.566 C 704.453 245.252, 706.103 247.727, 707.190 249.066 L 709.167 251.500 707.476 248.434 C 706.547 246.748, 704.897 244.273, 703.810 242.934 L 701.833 240.500 703.524 243.566 M 724.212 279.462 C 726.520 284.117, 728.570 287.763, 728.767 287.566 C 729.212 287.122, 721.162 271, 720.496 271 C 720.231 271, 721.903 274.808, 724.212 279.462 M 738.653 312 C 739.001 313.375, 739.903 316.075, 740.658 318 C 741.832 320.995, 741.948 321.083, 741.461 318.610 C 741.148 317.021, 740.246 314.321, 739.456 312.610 C 738.376 310.271, 738.177 310.120, 738.653 312 M 118.185 362.719 C 116.912 369.490, 115.803 378.944, 116.451 377.500 C 117.199 375.833, 120.077 357.744, 119.661 357.327 C 119.447 357.114, 118.783 359.540, 118.185 362.719 M 66.300 392 C 66.300 395.025, 66.487 396.262, 66.716 394.750 C 66.945 393.238, 66.945 390.762, 66.716 389.250 C 66.487 387.738, 66.300 388.975, 66.300 392 M 757.286 394.500 C 757.294 397.250, 757.488 398.256, 757.718 396.736 C 757.947 395.216, 757.941 392.966, 757.704 391.736 C 757.467 390.506, 757.279 391.750, 757.286 394.500 M 805.328 396.500 C 805.333 400.350, 805.513 401.802, 805.730 399.728 C 805.946 397.653, 805.943 394.503, 805.722 392.728 C 805.501 390.952, 805.324 392.650, 805.328 396.500 M 113.328 403.500 C 113.333 407.350, 113.513 408.802, 113.730 406.728 C 113.946 404.653, 113.943 401.503, 113.722 399.728 C 113.501 397.952, 113.324 399.650, 113.328 403.500 M 65.432 424 C 65.432 437.475, 65.574 442.988, 65.747 436.250 C 65.920 429.512, 65.920 418.488, 65.747 411.750 C 65.574 405.012, 65.432 410.525, 65.432 424 M 758.426 423.500 C 758.427 435.600, 758.571 440.413, 758.747 434.195 C 758.923 427.977, 758.922 418.077, 758.746 412.195 C 758.569 406.313, 758.425 411.400, 758.426 423.500 M 806.422 424 C 806.422 435.275, 806.568 439.887, 806.746 434.250 C 806.924 428.613, 806.924 419.387, 806.746 413.750 C 806.568 408.113, 806.422 412.725, 806.422 424 M 112.382 423.500 C 112.384 430.100, 112.546 432.670, 112.741 429.211 C 112.937 425.752, 112.936 420.352, 112.738 417.211 C 112.540 414.070, 112.380 416.900, 112.382 423.500 M 113.336 445 C 113.336 449.125, 113.513 450.813, 113.728 448.750 C 113.944 446.688, 113.944 443.313, 113.728 441.250 C 113.513 439.188, 113.336 440.875, 113.336 445 M 805.300 453 C 805.300 456.025, 805.487 457.262, 805.716 455.750 C 805.945 454.238, 805.945 451.762, 805.716 450.250 C 805.487 448.738, 805.300 449.975, 805.300 453 M 66.286 455.500 C 66.294 458.250, 66.488 459.256, 66.718 457.736 C 66.947 456.216, 66.941 453.966, 66.704 452.736 C 66.467 451.506, 66.279 452.750, 66.286 455.500 M 114.058 456.583 C 114.089 458.738, 114.507 462.300, 114.985 464.500 C 115.630 467.465, 115.711 466.560, 115.297 461 C 114.693 452.867, 113.965 450.274, 114.058 456.583 M 118.218 484 C 118.208 485.375, 118.560 487.625, 119 489 C 119.627 490.959, 119.797 491.067, 119.782 489.500 C 119.772 488.400, 119.420 486.150, 119 484.500 C 118.314 481.805, 118.235 481.754, 118.218 484 M 73.109 503 C 73.070 503.825, 73.665 506.750, 74.430 509.500 C 75.195 512.250, 75.853 513.825, 75.891 513 C 75.930 512.175, 75.335 509.250, 74.570 506.500 C 73.805 503.750, 73.147 502.175, 73.109 503 M 126.076 516.498 C 125.965 517.961, 132.139 536.194, 132.592 535.741 C 132.804 535.529, 131.442 530.888, 129.565 525.428 C 127.687 519.968, 126.118 515.949, 126.076 516.498 M 77.152 520 C 77.152 520.825, 77.759 523.075, 78.500 525 C 79.241 526.925, 79.848 527.825, 79.848 527 C 79.848 526.175, 79.241 523.925, 78.500 522 C 77.759 520.075, 77.152 519.175, 77.152 520 M 139 552.292 C 139 553.385, 148.848 574, 149.370 574 C 149.840 574, 140.285 552.980, 139.408 552.083 C 139.183 551.854, 139 551.948, 139 552.292 M 99 580.353 C 99 581.441, 107.965 599, 108.520 599 C 108.968 599, 100.323 581.101, 99.385 580.083 C 99.173 579.854, 99 579.976, 99 580.353 M 676 639.500 C 673.571 641.975, 671.809 644, 672.084 644 C 672.359 644, 674.571 641.975, 677 639.500 C 679.429 637.025, 681.191 635, 680.916 635 C 680.641 635, 678.429 637.025, 676 639.500 M 574.498 742.250 L 481.500 835.500 574.750 742.502 C 626.038 691.353, 668 649.391, 668 649.252 C 668 649.113, 667.887 649, 667.748 649 C 667.609 649, 625.647 690.962, 574.498 742.250 M 278 723.500 C 317.872 763.375, 350.720 796, 350.995 796 C 351.270 796, 318.872 763.375, 279 723.500 C 239.128 683.625, 206.280 651, 206.005 651 C 205.730 651, 238.128 683.625, 278 723.500 M 162.500 675 C 165.209 677.750, 167.650 680, 167.925 680 C 168.200 680, 166.209 677.750, 163.500 675 C 160.791 672.250, 158.350 670, 158.075 670 C 157.800 670, 159.791 672.250, 162.500 675 M 688.966 694.750 L 683.500 700.500 689.250 695.034 C 694.592 689.956, 695.458 689, 694.716 689 C 694.560 689, 691.972 691.587, 688.966 694.750 M 656.980 726.750 L 647.500 736.500 657.250 727.020 C 666.306 718.215, 667.455 717, 666.730 717 C 666.582 717, 662.194 721.388, 656.980 726.750 M 580 803.500 C 577.571 805.975, 575.809 808, 576.084 808 C 576.359 808, 578.571 805.975, 581 803.500 C 583.429 801.025, 585.191 799, 584.916 799 C 584.641 799, 582.429 801.025, 580 803.500 M 393 838.500 C 395.987 841.525, 398.657 844, 398.932 844 C 399.207 844, 396.987 841.525, 394 838.500 C 391.013 835.475, 388.343 833, 388.068 833 C 387.793 833, 390.013 835.475, 393 838.500 M 470.481 846.250 L 460.500 856.500 470.750 846.519 C 476.387 841.029, 481 836.417, 481 836.269 C 481 835.545, 479.752 836.730, 470.481 846.250 M 471 912.500 C 466.903 916.625, 463.775 920, 464.050 920 C 464.325 920, 467.903 916.625, 472 912.500 C 476.097 908.375, 479.225 905, 478.950 905 C 478.675 905, 475.097 908.375, 471 912.500" stroke="none" fill="#74462d" fill-rule="evenodd"/><path d="M 415 54.119 C 338.592 57.756, 265.632 85.492, 205.041 133.937 C 174.156 158.630, 146.528 189.148, 124.570 222.826 C 117.578 233.548, 105 255.134, 105 256.409 C 105 256.622, 103.011 261.005, 100.580 266.148 C 82.771 303.828, 70.951 347.498, 67.060 390 C 65.515 406.877, 65.757 444.265, 67.527 462.110 C 74.950 536.956, 103.823 604.664, 153.831 664.500 C 162.335 674.676, 431.100 944.180, 434.624 946.067 C 436.790 947.226, 443.669 940.508, 574.086 809.893 C 649.536 734.327, 714.497 668.675, 718.443 664 C 761.601 612.864, 790.752 550.083, 800.952 486.305 C 805.241 459.491, 805.501 455.855, 805.440 423.500 C 805.378 389.807, 804.304 377.738, 798.900 350 C 789.225 300.338, 767.693 250.597, 737.631 208.465 C 698.482 153.597, 642.108 108.245, 581.188 82.609 C 528.156 60.293, 475.380 51.245, 415 54.119 M 398.500 102.644 C 306.540 113.584, 226.013 161.715, 171.204 238.500 C 140.871 280.994, 121.712 330.648, 115.063 384 C 109.821 426.061, 112.304 463.939, 123.026 505.480 C 136.675 558.357, 160.771 601.858, 200.130 644.679 C 217.247 663.303, 434.808 880.010, 436.345 879.969 C 438.110 879.920, 674.727 642.699, 682.684 633 C 704.409 606.517, 719.855 581.593, 732.418 552.751 C 749.530 513.463, 757.456 477.162, 758.673 432.500 C 759.911 387.083, 752.935 346.645, 736.763 305.500 C 720.955 265.280, 696.005 227.137, 665.686 196.837 C 638.114 169.282, 611.742 150.335, 577.500 133.479 C 542.659 116.328, 508.718 106.486, 470.778 102.534 C 452.391 100.618, 415.050 100.675, 398.500 102.644 M 545.453 225.287 C 546.430 226.779, 547.853 228, 548.615 228 C 549.377 228, 550 228.342, 550 228.759 C 550 229.177, 551.013 230.149, 552.250 230.920 C 554.325 232.212, 554.391 232.189, 553.096 230.623 C 552.324 229.689, 549.889 227.496, 547.684 225.750 C 543.715 222.606, 543.693 222.602, 545.453 225.287 M 555 232.965 C 555 233.495, 555.913 234.418, 557.028 235.015 C 558.143 235.612, 558.792 236.528, 558.469 237.050 C 558.146 237.573, 558.668 238, 559.628 238 C 561.039 238, 560.822 237.424, 558.500 235 C 555.369 231.732, 555 231.517, 555 232.965" stroke="none" fill="#2a2a2a" fill-rule="evenodd"/></svg>